<svg xmlns="http://www.w3.org/2000/svg" width="777" height="480"><g fill="none" stroke="#222" stroke-width="2" stroke-linejoin="round" fill-rule="nonzero"><path stroke-opacity="1" stroke-dasharray="none" stroke-linecap="butt" opacity="1" id="svg_1" d="m372.077 220.329-67.967 96.11 100.685-26.713 72.602 17.808-1.37-80.137-54.11-39.04 8.22 68.492-50 19.863-8.06-56.383z" style="color:#000"/><path stroke-opacity="1" stroke-dasharray="none" stroke-linecap="butt" opacity="1" d="M144.48 392.74c0-27.348 22.151-49.5 49.5-49.5 27.348 0 49.5 22.152 49.5 49.5s-22.152 49.5-49.5 49.5c-27.349 0-49.5-22.152-49.5-49.5z" id="svg_5" class="selected"/><path stroke-opacity="1" stroke-dasharray="none" stroke-linecap="butt" opacity="1" d="M494.973 397.534c0-16.85 52.582-30.5 117.5-30.5 64.917 0 117.5 13.65 117.5 30.5 0 16.851-52.583 30.5-117.5 30.5-64.918 0-117.5-13.649-117.5-30.5z" id="svg_7"/><path id="svg_9" style="color:#000" d="M552.473 60.637h120v119h-120z"/><path id="svg_11" style="color:#000" d="M70.479 83.842h247v63h-247z"/></g></svg>