<svg xmlns="http://www.w3.org/2000/svg" xmlns:xlink="http://www.w3.org/1999/xlink" xmlns:dc="http://purl.org/dc/elements/1.1/" xmlns:rdf="http://www.w3.org/1999/02/22-rdf-syntax-ns#" width="777" height="480" style="">
    <g>
        <path fill="none" stroke="#222222" stroke-opacity="1" stroke-width="2" stroke-dasharray="none" stroke-linejoin="round" stroke-linecap="butt" stroke-dashoffset="" fill-rule="nonzero" opacity="1" marker-start="" marker-mid="" marker-end="" id="svg_1" d="M372.0767027150717,220.32875623289624 L304.10958930237655,316.4383522713021 L404.79452080922584,289.7260235041788 L477.3972605352532,307.53424268226104 L476.02739752155463,227.39725638089115 L421.91780848045875,188.3561604904802 L430.1369865626505,256.8493111754117 L380.13698656265046,276.7123248740418 L372.0767027150717,220.32875623289624 z" style="color: #000" class=""></path>
        <path fill="none" stroke="#222222" stroke-opacity="1" stroke-width="2" stroke-dasharray="none" stroke-linejoin="round" stroke-linecap="butt" stroke-dashoffset="" fill-rule="nonzero" opacity="1" marker-start="" marker-mid="" marker-end="" d="M144.4794626235962,392.73972606658936 C144.4794626235962,365.3916597682468 166.63139632525366,343.23972606658936 193.9794626235962,343.23972606658936 C221.32752892193872,343.23972606658936 243.4794626235962,365.3916597682468 243.4794626235962,392.73972606658936 C243.4794626235962,420.0877923649319 221.32752892193872,442.23972606658936 193.9794626235962,442.23972606658936 C166.63139632525366,442.23972606658936 144.4794626235962,420.0877923649319 144.4794626235962,392.73972606658936 z" id="svg_5" class="selected"></path>
        <path fill="none" stroke="#222222" stroke-opacity="1" stroke-width="2" stroke-dasharray="none" stroke-linejoin="round" stroke-linecap="butt" stroke-dashoffset="" fill-rule="nonzero" opacity="1" marker-start="" marker-mid="" marker-end="" d="M494.972580909729,397.5342445373535 C494.972580909729,380.68341580807174 547.5554538379058,367.0342445373535 612.472580909729,367.0342445373535 C677.3897079815522,367.0342445373535 729.972580909729,380.68341580807174 729.972580909729,397.5342445373535 C729.972580909729,414.3850732666353 677.3897079815522,428.0342445373535 612.472580909729,428.0342445373535 C547.5554538379058,428.0342445373535 494.972580909729,414.3850732666353 494.972580909729,397.5342445373535 z" id="svg_7" class=""></path>
        <rect fill="none" stroke="#222222" stroke-width="2" stroke-linejoin="round" stroke-dashoffset="" fill-rule="nonzero" id="svg_9" x="552.4725856781006" y="60.63698863983154" width="120" height="119" style="color: #000" class=""></rect>
        <rect fill="none" stroke="#222222" stroke-width="2" stroke-linejoin="round" stroke-dashoffset="" fill-rule="nonzero" id="svg_11" x="70.47946548461914" y="83.84246397018433" width="247" height="63" style="color: #000" class=""></rect>
    </g>
</svg>
